#Comment line ignore any data following # character 
#Hierarchical Translation and Rotation (.htr) file 
[Header]	
#Header keywords are followed by a single value 
FileType HTR		#Single word string
DataType HTRS		#Translation followed by rotation and scale data
FileVersion 1		#integer
NumSegments 64		#integer
NumFrames 3		#integer
DataFrameRate 30		#integer, data frame rate in this file
EulerRotationOrder ZYX
CalibrationUnits mm
RotationUnits Degrees
GlobalAxisofGravity Y
BoneLengthAxis Y
ScaleFactor 1.00
[SegmentNames&Hierarchy]
#CHILD	PARENT
Pinger_Root GLOBAL
Pelvis Pinger_Root
L_Hip Pelvis
R_Hip Pelvis
Rear_Leg01 Pelvis
Spine1 Pelvis
L_Leg01 L_Hip
L_Leg02 L_Leg01
L_Leg03 L_Leg02
L_Foot L_Leg03
L_Toe1_01 L_Foot
L_Toe2_01 L_Foot
L_Toe3_01 L_Foot
planeAlignerLeft L_Foot
L_Toe1_02 L_Toe1_01
L_Toe1_03 L_Toe1_02
L_Toe2_02 L_Toe2_01
L_Toe2_03 L_Toe2_02
L_Toe3_02 L_Toe3_01
L_Toe3_03 L_Toe3_02
planeLockWeightLeft planeAlignerLeft
R_Leg01 R_Hip
R_Leg02 R_Leg01
R_Leg03 R_Leg02
R_Foot R_Leg03
planeAlignerRight R_Foot
R_Toe1_01 R_Foot
R_Toe2_01 R_Foot
R_Toe3_01 R_Foot
planeLockWeightRight planeAlignerRight
R_Toe1_02 R_Toe1_01
R_Toe1_03 R_Toe1_02
R_Toe2_02 R_Toe2_01
R_Toe2_03 R_Toe2_02
R_Toe3_02 R_Toe3_01
R_Toe3_03 R_Toe3_02
Rear_Leg02 Rear_Leg01
Rear_Leg03 Rear_Leg02
Rear_Leg04 Rear_Leg03
Rear_Foot Rear_Leg04
planeAlignerCenter Rear_Foot
Rear_Toe1_01 Rear_Foot
Rear_Toe2_01 Rear_Foot
Rear_Toe3_01 Rear_Foot
planeLockWeightCenter planeAlignerCenter
Rear_Toe1_02 Rear_Toe1_01
Rear_Toe1_03 Rear_Toe1_02
Rear_Toe2_02 Rear_Toe2_01
Rear_Toe2_03 Rear_Toe2_02
Rear_Toe3_02 Rear_Toe3_01
Rear_Toe3_03 Rear_Toe3_02
Back_Bone Spine1
Head Spine1
Motor_Bone Back_Bone
Ping_Mechanism Back_Bone
BN_LookIK Head
bottomMouth Head
L_Mouth01 Head
L_mouthFront Head
mouthGun Head
R_Mouth01 Head
R_mouthFront Head
TopMouth Head
weapon_bone Head
[BasePosition]
#SegmentName Tx, Ty, Tz, Rx, Ry, Rz, BoneLength
Pinger_Root 0.000000 0.000000 0.000000 -90.000000 0.000000 0.000000 10.000000 
Pelvis 0.000000 0.000000 0.000000 0.000000 0.000000 0.000000 10.000000 
L_Hip 0.000000 0.000000 0.000000 0.000000 0.000000 0.000000 10.000000 
R_Hip 0.000000 0.000000 0.000000 0.000000 0.000000 0.000000 10.000000 
Rear_Leg01 0.000000 0.000000 0.000000 0.000000 0.000000 0.000000 10.000000 
Spine1 0.000000 0.000000 0.000000 0.000000 0.000000 0.000000 10.000000 
L_Leg01 0.000000 0.000000 0.000000 0.000000 0.000000 0.000000 10.000000 
L_Leg02 0.000000 0.000000 0.000000 0.000000 0.000000 0.000000 10.000000 
L_Leg03 0.000000 0.000000 0.000000 0.000000 0.000000 0.000000 10.000000 
L_Foot 0.000000 0.000000 0.000000 0.000000 0.000000 0.000000 10.000000 
L_Toe1_01 0.000000 0.000000 0.000000 0.000000 0.000000 0.000000 10.000000 
L_Toe2_01 0.000000 0.000000 0.000000 0.000000 0.000000 0.000000 10.000000 
L_Toe3_01 0.000000 0.000000 0.000000 0.000000 0.000000 0.000000 10.000000 
planeAlignerLeft 0.000000 0.000000 0.000000 0.000000 0.000000 0.000000 10.000000 
L_Toe1_02 0.000000 0.000000 0.000000 0.000000 0.000000 0.000000 10.000000 
L_Toe1_03 0.000000 0.000000 0.000000 0.000000 0.000000 0.000000 10.000000 
L_Toe2_02 0.000000 0.000000 0.000000 0.000000 0.000000 0.000000 10.000000 
L_Toe2_03 0.000000 0.000000 0.000000 0.000000 0.000000 0.000000 10.000000 
L_Toe3_02 0.000000 0.000000 0.000000 0.000000 0.000000 0.000000 10.000000 
L_Toe3_03 0.000000 0.000000 0.000000 0.000000 0.000000 0.000000 10.000000 
planeLockWeightLeft 0.000000 0.000000 0.000000 0.000000 0.000000 0.000000 10.000000 
R_Leg01 0.000000 0.000000 0.000000 0.000000 0.000000 0.000000 10.000000 
R_Leg02 0.000000 0.000000 0.000000 0.000000 0.000000 0.000000 10.000000 
R_Leg03 0.000000 0.000000 0.000000 0.000000 0.000000 0.000000 10.000000 
R_Foot 0.000000 0.000000 0.000000 0.000000 0.000000 0.000000 10.000000 
planeAlignerRight 0.000000 0.000000 0.000000 0.000000 0.000000 0.000000 10.000000 
R_Toe1_01 0.000000 0.000000 0.000000 0.000000 0.000000 0.000000 10.000000 
R_Toe2_01 0.000000 0.000000 0.000000 0.000000 0.000000 0.000000 10.000000 
R_Toe3_01 0.000000 0.000000 0.000000 0.000000 0.000000 0.000000 10.000000 
planeLockWeightRight 0.000000 0.000000 0.000000 0.000000 0.000000 0.000000 10.000000 
R_Toe1_02 0.000000 0.000000 0.000000 0.000000 0.000000 0.000000 10.000000 
R_Toe1_03 0.000000 0.000000 0.000000 0.000000 0.000000 0.000000 10.000000 
R_Toe2_02 0.000000 0.000000 0.000000 0.000000 0.000000 0.000000 10.000000 
R_Toe2_03 0.000000 0.000000 0.000000 0.000000 0.000000 0.000000 10.000000 
R_Toe3_02 0.000000 0.000000 0.000000 0.000000 0.000000 0.000000 10.000000 
R_Toe3_03 0.000000 0.000000 0.000000 0.000000 0.000000 0.000000 10.000000 
Rear_Leg02 0.000000 0.000000 0.000000 0.000000 0.000000 0.000000 10.000000 
Rear_Leg03 0.000000 0.000000 0.000000 0.000000 0.000000 0.000000 10.000000 
Rear_Leg04 0.000000 0.000000 0.000000 0.000000 0.000000 0.000000 10.000000 
Rear_Foot 0.000000 0.000000 0.000000 0.000000 0.000000 0.000000 10.000000 
planeAlignerCenter 0.000000 0.000000 0.000000 0.000000 0.000000 0.000000 10.000000 
Rear_Toe1_01 0.000000 0.000000 0.000000 0.000000 0.000000 0.000000 10.000000 
Rear_Toe2_01 0.000000 0.000000 0.000000 0.000000 0.000000 0.000000 10.000000 
Rear_Toe3_01 0.000000 0.000000 0.000000 0.000000 0.000000 0.000000 10.000000 
planeLockWeightCenter 0.000000 0.000000 0.000000 0.000000 0.000000 0.000000 10.000000 
Rear_Toe1_02 0.000000 0.000000 0.000000 0.000000 0.000000 0.000000 10.000000 
Rear_Toe1_03 0.000000 0.000000 0.000000 0.000000 0.000000 0.000000 10.000000 
Rear_Toe2_02 0.000000 0.000000 0.000000 0.000000 0.000000 0.000000 10.000000 
Rear_Toe2_03 0.000000 0.000000 0.000000 0.000000 0.000000 0.000000 10.000000 
Rear_Toe3_02 0.000000 0.000000 0.000000 0.000000 0.000000 0.000000 10.000000 
Rear_Toe3_03 0.000000 0.000000 0.000000 0.000000 0.000000 0.000000 10.000000 
Back_Bone 0.000000 0.000000 0.000000 0.000000 0.000000 0.000000 10.000000 
Head 0.000000 0.000000 0.000000 0.000000 0.000000 0.000000 10.000000 
Motor_Bone 0.000000 0.000000 0.000000 0.000000 0.000000 0.000000 10.000000 
Ping_Mechanism 0.000000 0.000000 0.000000 0.000000 0.000000 0.000000 10.000000 
BN_LookIK 0.000000 0.000000 0.000000 0.000000 0.000000 0.000000 10.000000 
bottomMouth 0.000000 0.000000 0.000000 0.000000 0.000000 0.000000 10.000000 
L_Mouth01 0.000000 0.000000 0.000000 0.000000 0.000000 0.000000 10.000000 
L_mouthFront 0.000000 0.000000 0.000000 0.000000 0.000000 0.000000 10.000000 
mouthGun 0.000000 0.000000 0.000000 0.000000 0.000000 0.000000 10.000000 
R_Mouth01 0.000000 0.000000 0.000000 0.000000 0.000000 0.000000 10.000000 
R_mouthFront 0.000000 0.000000 0.000000 0.000000 0.000000 0.000000 10.000000 
TopMouth 0.000000 0.000000 0.000000 0.000000 0.000000 0.000000 10.000000 
weapon_bone 0.000000 0.000000 0.000000 0.000000 0.000000 0.000000 10.000000 
#Beginning of Data. Separated by tabs
#Fr	Tx	Ty	Tz	Rx	Ry	Rz	SF
[Pinger_Root]
1 0.000000 0.000000 0.000000 -0.000075 -0.000000 -0.000020 0.000000
2 0.000000 0.000000 0.000000 -0.000075 -0.000000 -0.000020 0.000000
3 0.000000 0.000000 0.000000 -0.000075 -0.000000 -0.000020 0.000000
[Pelvis]
1 72.227844 916.536743 4432.230957 -100.363472 -85.972015 92.748032 4526.580078
2 161.215195 870.648560 4146.076172 -128.824768 -81.555084 120.950798 4239.571289
3 348.017212 773.878845 4395.721191 -113.742851 -79.129669 105.879417 4476.870117
[L_Hip]
1 5.766392 125.831482 872.656799 160.158691 -45.484905 122.312202 881.701050
2 5.766392 125.831482 872.656799 160.158691 -45.484905 122.312202 881.701050
3 5.766392 125.831482 872.656799 160.158691 -45.484905 122.312202 881.701050
[R_Hip]
1 5.765438 125.836372 -872.654907 38.087841 49.812687 125.703735 881.699829
2 5.765438 125.836372 -872.654907 38.087845 49.812687 125.703735 881.699829
3 5.765438 125.836372 -872.654907 38.087841 49.812687 125.703735 881.699829
[Rear_Leg01]
1 -192.298416 -925.602966 -0.001907 169.680527 1.958474 -159.661636 945.367432
2 -192.298416 -925.602966 -0.001907 167.404816 -3.303713 -160.493225 945.367432
3 -192.298416 -925.602966 -0.001907 167.640991 -5.453763 -167.010864 945.367432
[Spine1]
1 290.604584 5.007505 0.000477 7.265744 -0.619986 19.266817 290.647736
2 290.604584 5.007505 0.000477 10.978549 -3.684406 18.402248 290.647736
3 290.604584 5.007505 0.000477 13.930273 8.791727 16.081488 290.647736
[L_Leg01]
1 761.932007 -0.002384 -0.069261 22.817181 -15.695028 -9.052058 761.932068
2 761.932007 -0.002384 -0.069261 22.212685 -16.866613 11.879143 761.932068
3 761.932007 -0.002384 -0.069261 21.903498 -14.460144 3.334433 761.932068
[L_Leg02]
1 1441.140503 -0.000954 -0.000715 2.603748 -0.185718 -129.018967 1441.140503
2 1441.140503 -0.000954 -0.000715 4.699096 -0.170742 -147.875549 1441.140503
3 1441.140503 -0.000954 -0.000715 2.587985 -0.187136 -128.871109 1441.140503
[L_Leg03]
1 1686.963989 -0.000715 -0.000954 -0.029945 0.014719 118.138969 1686.963989
2 1686.963989 -0.000715 -0.000954 -0.036420 0.017093 120.249199 1686.963989
3 1686.963989 -0.000715 -0.000954 -0.029947 0.014715 118.121674 1686.963989
[L_Foot]
1 3041.570068 -30.715107 11.297464 1.950223 13.083426 55.475243 3041.746094
2 3041.570068 -30.715107 11.297464 -0.832040 11.868919 56.467571 3041.746094
3 3041.570068 -30.715107 11.297464 -2.361311 12.771181 50.313389 3041.746094
[L_Toe1_01]
1 -188.216690 -224.732346 -21.137953 93.719086 -6.862507 -171.970444 293.899567
2 -188.216690 -224.732346 -21.137953 93.703766 -6.774242 -171.759705 293.899567
3 -188.216690 -224.732346 -21.137953 93.652199 -6.494254 -171.140808 293.899567
[L_Toe2_01]
1 200.746536 -219.926590 148.838394 -90.023987 -26.311703 -52.677628 332.896027
2 200.746536 -219.926590 148.838394 -89.979332 -26.137226 -52.920433 332.896027
3 200.746536 -219.926590 148.838394 -89.852646 -25.696972 -53.520626 332.896027
[L_Toe3_01]
1 188.832520 -219.859131 -191.078659 -99.788055 13.839008 -67.673027 347.140900
2 188.832520 -219.859131 -191.078659 -99.873329 13.853561 -68.024925 347.140900
3 188.832520 -219.859131 -191.078659 -100.090645 13.892493 -68.902901 347.140900
[planeAlignerLeft]
1 0.812531 -811.448792 -0.314951 0.000000 -90.000000 -90.001900 811.449280
2 0.812531 -811.448792 -0.314951 0.000000 -90.000000 -90.001900 811.449280
3 0.812531 -811.448792 -0.314951 0.000000 -90.000000 -90.001900 811.449280
[L_Toe1_02]
1 413.761139 0.000477 0.000000 0.000203 -25.410625 -0.000182 413.761139
2 413.761139 0.000477 0.000000 0.000203 -25.410625 -0.000182 413.761139
3 413.761139 0.000477 0.000000 0.000203 -25.410625 -0.000182 413.761139
[L_Toe1_03]
1 464.317322 0.000358 -0.000089 0.003733 53.353565 0.003733 464.317322
2 464.317322 0.000358 -0.000089 0.003720 53.217171 0.003720 464.317322
3 464.317322 0.000358 -0.000089 0.003707 53.080769 0.003707 464.317322
[L_Toe2_02]
1 342.235809 -0.000477 0.000238 0.001188 -72.402016 0.001188 342.235809
2 342.235809 -0.000477 0.000238 0.001188 -72.203056 0.001188 342.235809
3 342.235809 -0.000477 0.000238 0.001188 -72.004150 0.001188 342.235809
[L_Toe2_03]
1 420.210846 -0.000715 0.000000 0.029090 85.375511 0.029090 420.210846
2 420.210846 -0.000715 0.000000 0.027342 85.079803 0.027342 420.210846
3 420.210846 -0.000715 0.000000 0.023814 84.350281 0.023814 420.210846
[L_Toe3_02]
1 329.270111 0.000954 0.000000 0.001178 -80.480331 0.001178 329.270111
2 329.270111 0.000954 0.000000 0.001178 -80.318443 0.001178 329.270111
3 329.270111 0.000954 0.000000 0.001178 -79.892044 0.001178 329.270111
[L_Toe3_03]
1 439.137451 -0.001907 0.000954 -179.995956 78.605698 -179.992447 439.137451
2 439.137451 -0.001907 0.000954 -179.995621 79.252731 -179.992111 439.137451
3 439.137451 -0.001907 0.000954 -179.994522 80.900024 -179.990997 439.137451
[planeLockWeightLeft]
1 -0.000954 0.000238 -0.000305 -0.011826 -0.004376 0.005620 0.001029
2 -0.000954 0.000238 -0.000305 -0.011826 -0.004376 0.005620 0.001029
3 -0.000954 0.000238 -0.000305 -0.011826 -0.004376 0.005620 0.001029
[R_Leg01]
1 761.455627 -0.001907 -0.000358 120.155914 -8.176376 35.633469 761.455688
2 761.455627 -0.001907 -0.000358 123.430206 -16.441479 34.617691 761.455688
3 761.455627 -0.001907 -0.000358 124.449829 -16.925499 37.733177 761.455688
[R_Leg02]
1 1441.140625 0.000000 -0.000238 -1.339028 -0.199425 -118.901085 1441.140625
2 1441.140625 0.000000 -0.000238 -1.667767 -0.356072 -128.078842 1441.140625
3 1441.140625 0.000000 -0.000238 -1.227452 -0.155014 -115.857430 1441.140625
[R_Leg03]
1 1686.963989 0.000954 0.001431 0.075761 -0.043586 131.407837 1686.963989
2 1686.963989 0.000954 0.001431 0.085912 -0.045750 133.698380 1686.963989
3 1686.963989 0.000954 0.001431 0.073997 -0.038564 130.608917 1686.963989
[R_Foot]
1 3041.560059 -30.531288 -11.204481 -0.534461 -24.682068 55.345036 3041.734131
2 3041.560059 -30.531288 -11.204481 -0.746738 -24.480011 57.030186 3041.734131
3 3041.560059 -30.531288 -11.204481 -4.754271 -24.702282 54.134983 3041.734131
[planeAlignerRight]
1 -0.635147 -812.270569 -0.364304 0.000000 -89.960434 -90.005180 812.270874
2 -0.635147 -812.270569 -0.364304 0.000000 -89.960434 -90.005180 812.270874
3 -0.635147 -812.270569 -0.364304 0.000000 -89.960434 -90.005180 812.270874
[R_Toe1_01]
1 -188.383347 -224.864899 21.052242 76.763535 -0.414595 -172.728699 294.101532
2 -188.383347 -224.864899 21.052242 76.742920 1.774967 -176.729294 294.101532
3 -188.383347 -224.864899 21.052242 76.711754 2.128366 -176.185791 294.101532
[R_Toe2_01]
1 200.637817 -220.002121 -148.787384 -91.743256 32.873833 -59.182163 332.857574
2 200.637817 -220.002121 -148.787384 -90.805702 37.367382 -54.991245 332.857574
3 200.637817 -220.002121 -148.787384 -91.191376 37.573727 -55.549042 332.857574
[R_Toe3_01]
1 188.606735 -220.092957 191.126343 -73.225998 -8.456855 -73.756157 347.192566
2 188.606735 -220.092957 191.126343 -74.234291 -8.584782 -67.629944 347.192566
3 188.606735 -220.092957 191.126343 -74.347275 -8.263072 -67.941063 347.192566
[planeLockWeightRight]
1 -0.000477 0.000000 0.000000 -0.011823 -0.004379 -0.000027 0.000477
2 -0.000477 0.000000 0.000000 -0.011823 -0.004379 -0.000027 0.000477
3 -0.000477 0.000000 0.000000 -0.011823 -0.004379 -0.000027 0.000477
[R_Toe1_02]
1 413.762085 0.000477 -0.000119 0.001394 -24.659479 0.001394 413.762085
2 413.762085 0.000477 -0.000119 0.001393 -24.872232 0.001393 413.762085
3 413.762085 0.000477 -0.000119 0.001391 -25.084988 0.001391 413.762085
[R_Toe1_03]
1 464.317810 0.000000 0.001088 0.006625 69.593369 0.006625 464.317810
2 464.317810 0.000000 0.001088 0.006052 67.635483 0.006052 464.317810
3 464.317810 0.000000 0.001088 0.005792 66.620537 0.005792 464.317810
[R_Toe2_02]
1 342.234741 -0.000954 0.000238 0.001197 -67.215302 0.001197 342.234741
2 342.234741 -0.000954 0.000238 0.001190 -71.016838 0.001190 342.234741
3 342.234741 -0.000954 0.000238 0.001190 -70.816475 0.001190 342.234741
[R_Toe2_03]
1 420.210846 0.000715 -0.000268 0.008231 73.605896 0.008231 420.210846
2 420.210846 0.000715 -0.000268 0.016858 82.015953 0.016858 420.210846
3 420.210846 0.000715 -0.000268 0.015884 81.525345 0.015884 420.210846
[R_Toe3_02]
1 329.270355 -0.000477 -0.000954 0.001184 -74.518616 0.001184 329.270355
2 329.270355 -0.000477 -0.000954 0.001178 -80.279671 0.001178 329.270355
3 329.270355 -0.000477 -0.000954 0.001178 -80.299026 0.001178 329.270355
[R_Toe3_03]
1 439.137939 0.000238 0.001431 -0.011587 83.300278 -0.008085 439.137939
2 439.137939 0.000238 0.001431 -179.995590 79.297676 -179.992081 439.137939
3 439.137939 0.000238 0.001431 -179.995636 79.233490 -179.992126 439.137939
[Rear_Leg02]
1 1162.777710 -0.029802 0.005960 0.634897 -2.916484 -123.698227 1162.777710
2 1162.777710 -0.029802 0.005960 1.165802 -2.741502 -134.857101 1162.777710
3 1162.777710 -0.029802 0.005960 0.754096 -2.887308 -126.122971 1162.777710
[Rear_Leg03]
1 607.192505 -0.013351 -0.073195 0.006472 -0.002119 64.461884 607.192505
2 607.192505 -0.013351 -0.073195 0.010487 -0.005115 68.357323 607.192505
3 607.192505 -0.013351 -0.073195 0.010618 -0.004839 65.352783 607.192505
[Rear_Leg04]
1 995.874512 -0.020504 -0.011921 -0.040559 -0.015048 58.562256 995.874573
2 995.874512 -0.020504 -0.011921 -0.040105 -0.018990 66.685699 995.874573
3 995.874512 -0.020504 -0.011921 -0.043271 -0.018697 60.327694 995.874573
[Rear_Foot]
1 3096.176270 -0.067472 -0.041425 -143.807465 85.749458 48.945320 3096.176270
2 3096.176270 -0.067472 -0.041425 -153.914551 84.422409 39.461395 3096.176270
3 3096.176270 -0.067472 -0.041425 -160.041748 82.450874 30.239706 3096.176270
[planeAlignerCenter]
1 0.350077 0.966311 -838.790894 0.000009 0.000003 -179.999985 838.791565
2 0.350077 0.966311 -838.790894 0.000009 0.000003 -179.999985 838.791565
3 0.350077 0.966311 -838.790894 0.000009 0.000003 -179.999985 838.791565
[Rear_Toe1_01]
1 0.653352 83.966492 -371.173737 0.288091 41.914127 90.413170 380.553192
2 0.653352 83.966492 -371.173737 0.288091 41.914139 90.413193 380.553192
3 0.653352 83.966492 -371.173737 0.288091 41.914127 90.413170 380.553192
[Rear_Toe2_01]
1 178.200760 -294.826019 -362.060547 -7.196267 34.406261 -66.271294 499.765686
2 178.200760 -294.826019 -362.060547 -7.196270 34.406265 -66.271301 499.765686
3 178.200760 -294.826019 -362.060547 -7.196267 34.406261 -66.271294 499.765686
[Rear_Toe3_01]
1 -153.359680 -308.780914 -362.060852 3.289418 33.518005 -112.540970 499.952881
2 -153.359680 -308.780914 -362.060852 3.289420 33.518009 -112.540970 499.952881
3 -153.359680 -308.780914 -362.060852 3.289418 33.518005 -112.540970 499.952881
[planeLockWeightCenter]
1 -0.000062 0.000238 0.000000 -0.011814 -0.004373 -0.000015 0.000246
2 -0.000062 0.000238 0.000000 -0.011814 -0.004373 -0.000015 0.000246
3 -0.000062 0.000238 0.000000 -0.011814 -0.004373 -0.000015 0.000246
[Rear_Toe1_02]
1 379.707825 0.194073 0.000477 -0.000242 -31.676744 0.006934 379.707855
2 379.707825 0.194073 0.000477 -0.000242 -31.676748 0.006934 379.707855
3 379.707825 0.194073 0.000477 -0.000242 -31.676744 0.006934 379.707855
[Rear_Toe1_03]
1 500.129700 0.165701 0.000119 -0.000103 51.902481 0.007295 500.129761
2 500.129700 0.165701 0.000119 -0.000103 51.902481 0.007295 500.129761
3 500.129700 0.165701 0.000119 -0.000103 51.902481 0.007295 500.129761
[Rear_Toe2_02]
1 340.494507 0.000238 -0.000954 0.001192 -69.854523 0.001192 340.494507
2 340.494507 0.000238 -0.000954 0.001192 -69.854523 0.001192 340.494507
3 340.494507 0.000238 -0.000954 0.001192 -69.854523 0.001192 340.494507
[Rear_Toe2_03]
1 433.103577 0.000000 0.000238 0.006696 69.810326 0.006696 433.103546
2 433.103577 0.000000 0.000238 0.006696 69.810341 0.006696 433.103546
3 433.103577 0.000000 0.000238 0.006696 69.810326 0.006696 433.103546
[Rear_Toe3_02]
1 340.494141 -0.000358 -0.000477 0.008288 -67.274704 -0.009460 340.494171
2 340.494141 -0.000358 -0.000477 0.008288 -67.274712 -0.009460 340.494171
3 340.494141 -0.000358 -0.000477 0.008288 -67.274704 -0.009460 340.494171
[Rear_Toe3_03]
1 433.103577 0.001431 -0.000238 -0.000972 65.958984 -0.004547 433.103546
2 433.103577 0.001431 -0.000238 -0.000972 65.958984 -0.004547 433.103546
3 433.103577 0.001431 -0.000238 -0.000972 65.958984 -0.004547 433.103546
[Back_Bone]
1 1312.175781 -701.934692 0.000954 0.000023 -0.000007 -85.606667 1488.125488
2 1312.175781 -701.934692 0.000954 0.000023 -0.000007 -85.606667 1488.125488
3 1312.175781 -701.934692 0.000954 0.000023 -0.000007 -85.606667 1488.125488
[Head]
1 1406.159424 809.709290 0.001431 0.000625 -1.475623 7.768025 1622.625488
2 1406.159424 809.709290 0.001431 -0.101961 -17.402130 15.297502 1622.625488
3 1406.159424 809.709290 0.001431 -0.288353 -12.148002 22.827333 1622.625488
[Motor_Bone]
1 1158.364380 -417.834747 0.000477 -0.000105 0.000046 -105.985291 1231.419434
2 1158.364380 -417.834747 0.000477 -0.000105 0.000046 -105.985291 1231.419434
3 1158.364380 -417.834747 0.000477 -0.000105 0.000046 -105.985291 1231.419434
[Ping_Mechanism]
1 1215.237793 -433.297150 0.000954 0.000103 -0.000053 82.120995 1290.174072
2 1215.237793 -433.297150 0.000954 0.000103 -0.000053 82.120995 1290.174072
3 1215.237793 -433.297150 0.000954 0.000103 -0.000053 82.120995 1290.174072
[BN_LookIK]
1 193.241119 1380.371704 -0.002861 0.000000 89.965736 -31.038179 1393.832153
2 193.241119 1380.371704 -0.002861 0.000000 89.965736 -31.038179 1393.832153
3 193.241119 1380.371704 -0.002861 0.000000 89.965736 -31.038179 1393.832153
[bottomMouth]
1 -435.092926 615.759399 -0.000954 -0.000022 0.000016 73.527184 753.966492
2 -435.092926 615.759399 -0.000954 -0.000022 0.000016 73.527184 753.966492
3 -435.092926 615.759399 -0.000954 -0.000022 0.000016 73.527184 753.966492
[L_Mouth01]
1 554.440979 7.658243 838.222046 150.204178 23.759130 109.605339 1005.027161
2 554.440979 7.658243 838.222046 150.204178 23.759130 109.605339 1005.027161
3 554.440979 7.658243 838.222046 150.204178 23.759130 109.605339 1005.027161
[L_mouthFront]
1 551.629089 934.514771 339.150421 0.000081 2.804060 79.119301 1136.941284
2 551.629089 934.514771 339.150421 0.000081 2.804060 79.119301 1136.941284
3 551.629089 934.514771 339.150421 0.000081 2.804060 79.119301 1136.941284
[mouthGun]
1 55.332661 1627.420898 0.000000 0.000023 0.000009 -11.038128 1628.361328
2 55.332661 1627.420898 0.000000 0.000023 0.000009 -11.038128 1628.361328
3 55.332661 1627.420898 0.000000 0.000023 0.000009 -11.038128 1628.361328
[R_Mouth01]
1 554.442383 7.659197 -838.223938 29.795891 -23.759109 109.605331 1005.029541
2 554.442383 7.659197 -838.223938 29.795891 -23.759109 109.605331 1005.029541
3 554.442383 7.659197 -838.223938 29.795891 -23.759109 109.605331 1005.029541
[R_mouthFront]
1 551.629089 934.514282 -339.151367 0.000029 -2.803930 79.119133 1136.941162
2 551.629089 934.514282 -339.151367 0.000029 -2.803930 79.119133 1136.941162
3 551.629089 934.514282 -339.151367 0.000029 -2.803930 79.119133 1136.941162
[TopMouth]
1 461.269867 -56.106091 -0.008583 -0.000059 -0.000268 92.025169 464.669525
2 461.269867 -56.106091 -0.008583 -0.000059 -0.000268 92.025169 464.669525
3 461.269867 -56.106091 -0.008583 -0.000059 -0.000268 92.025169 464.669525
[weapon_bone]
1 -987.239868 1448.372803 0.001431 0.000000 89.965736 -31.038221 1752.833740
2 -987.239868 1448.372803 0.001431 0.000000 89.965736 -31.038221 1752.833740
3 -987.239868 1448.372803 0.001431 0.000000 89.965736 -31.038221 1752.833740
